Coordinates
version=1
nRows=8
nColumns=42
inDegrees=yes

Units are S.I. units (second, meters, Newtons, ...)
If the header above contains a line with 'inDegrees', this indicates whether rotational values are in degrees (yes) or radians (no).

endheader
time	pelvis_tilt	pelvis_list	pelvis_rotation	pelvis_tx	pelvis_ty	pelvis_tz	hip_flexion_r	hip_adduction_r	hip_rotation_r	knee_angle_r	knee_angle_r_beta	ankle_angle_r	subtalar_angle_r	mtp_angle_r	hip_flexion_l	hip_adduction_l	hip_rotation_l	knee_angle_l	knee_angle_l_beta	ankle_angle_l	subtalar_angle_l	mtp_angle_l	lumbar_extension	lumbar_bending	lumbar_rotation	sh_tx_r	sh_ty_r	sh_tz_r	sh_plane_elev_r	sh_elev_r	sh_axial_rot_r	elbow_flex_r	pro_sup_r	sh_tx_l	sh_ty_l	sh_tz_l	sh_plane_elev_l	sh_elev_l	sh_axial_rot_l	elbow_flex_l	pro_sup_l
      4.40677970	     -6.56364954	      0.46903426	     -1.48172683	      0.30112446	      0.93365386	     -0.02881507	      5.31422605	     -5.78513282	     -3.07873097	      0.42683834	      0.00744973	      2.94575790	      5.39594272	     -7.49999987	      3.95341153	     -3.74606283	     -6.33663483	      0.29498099	      0.00514839	      7.96128830	      4.93039137	     -7.49999987	     -1.64809151	    -10.32103679	      1.82210843	     -0.01093752	      0.03274338	     -0.00589478	    -13.75517359	     81.66440316	     17.41218819	    106.64860689	     80.20698651	     -0.00304305	     -0.00790415	     -0.00633035	     36.89165673	     15.90636775	     -5.05051375	     18.78977514	     39.36657309
      4.42372880	     -6.29672754	      0.40124347	     -1.41666272	      0.30094254	      0.93398797	     -0.02875170	      4.99268676	     -5.72196143	     -3.23865576	      0.40576781	      0.00708198	      2.78639307	      5.52297363	     -7.49999987	      3.67335076	     -3.81763256	     -6.40645611	      0.29535706	      0.00515495	      7.88173483	      5.06604521	     -7.49999987	     -1.93341405	    -10.29438095	      2.27418874	     -0.01018442	      0.03349241	     -0.00568584	    -14.58622347	     81.72609196	     18.60139083	    107.06845139	     86.47225455	     -0.00372072	     -0.00822659	     -0.00614706	     42.70092501	     16.39632013	     -4.41900706	     15.41381985	     32.95922751
      4.44067800	     -6.27970840	      0.39806053	     -1.36012325	      0.30099837	      0.93409151	     -0.02880879	      4.95858718	     -5.72307180	     -3.23390045	      0.40127784	      0.00700362	      2.77591225	      5.44732172	     -7.49999987	      3.66560070	     -3.81692758	     -6.35431719	      0.29800536	      0.00520117	      7.87884923	      5.04095806	     -7.49999987	     -1.95683637	    -10.31970622	      2.28647990	     -0.01004172	      0.03369576	     -0.00564533	    -14.67711285	     81.66936475	     19.20261236	    107.35429738	     85.55313859	     -0.00254484	     -0.00858917	     -0.00622974	     42.18049407	     16.27802770	     -4.57037011	     15.62684218	     33.64958281
      4.45762710	     -6.33661271	      0.37111293	     -1.31900601	      0.30088845	      0.93405071	     -0.02874296	      5.00634473	     -5.69023546	     -3.24383489	      0.39626162	      0.00691607	      2.68468085	      5.38916791	     -7.49999987	      3.74014248	     -3.83874977	     -6.29882734	      0.30303199	      0.00528891	      7.81609585	      4.88694997	     -7.49999987	     -1.94588256	    -10.27138010	      2.30073545	     -0.01069840	      0.03390787	     -0.00569286	    -14.60469454	     81.43853462	     19.74729424	    107.27896304	     84.67489713	     -0.00188998	     -0.00893926	     -0.00624577	     41.67192126	     16.17465063	     -4.73658070	     15.98987733	     34.45515902
      4.47457630	     -6.37038699	      0.39707925	     -1.29454450	      0.30096520	      0.93414738	     -0.02882968	      5.03443850	     -5.71328671	     -3.22238344	      0.39074238	      0.00681974	      2.64156383	      5.31637616	     -7.49999987	      3.78482866	     -3.80329116	     -6.32991530	      0.30552322	      0.00533239	      7.80562596	      4.91065934	     -7.49999987	     -1.86564757	    -10.37960877	      2.37820506	     -0.01031869	      0.03353532	     -0.00575461	    -14.44439041	     81.39798613	     20.44120433	    107.21794195	     83.92660999	     -0.00147721	     -0.00918190	     -0.00623956	     41.07534055	     16.11258858	     -4.90211793	     16.25268793	     35.18498149
      4.49152540	     -6.57261244	      0.43908277	     -1.33899699	      0.30098635	      0.93381886	     -0.02859559	      5.27139256	     -5.74392297	     -3.08426039	      0.40794444	      0.00711997	      2.68952370	      5.22185334	     -7.49999987	      3.99773750	     -3.76537298	     -6.27472811	      0.31070280	      0.00542279	      7.88418183	      4.84333937	     -7.49999987	     -1.55790120	    -10.48644836	      2.47196208	     -0.01036737	      0.03364020	     -0.00552129	    -14.44926302	     81.00027860	     20.87287809	    107.17687590	     82.40947246	     -0.00090239	     -0.00952270	     -0.00629537	     39.56961800	     15.75768843	     -5.25938996	     16.78533491	     36.72019581
      4.50847460	     -6.38004489	      0.40255806	     -1.25735664	      0.30105462	      0.93113641	     -0.02887548	      5.03077705	     -5.72267790	     -3.28611542	      0.39099360	      0.00682413	      2.66385119	      5.47967478	     -7.49999987	      3.80475041	     -3.78810715	     -6.32886332	      0.31356169	      0.00547268	      7.96340275	      5.05599419	     -7.49999987	     -1.93164157	    -10.38585114	      2.39471154	     -0.01133485	      0.03355850	     -0.00567047	    -14.19507591	     81.58386800	     21.31375222	    107.23950767	     86.55016372	     -0.00359709	     -0.00967937	     -0.00609310	     41.35807550	     15.98990980	     -3.96313588	     16.27387336	     33.82254037
      4.52542370	     -6.37515733	      0.42946129	     -1.27629176	      0.30089363	      0.93435941	     -0.02867384	      5.02916180	     -5.74701762	     -3.27856720	      0.39003458	      0.00680739	      2.63209642	      5.49413158	     -7.49999987	      3.80029266	     -3.76105000	     -6.28435634	      0.31183077	      0.00544247	      7.96400848	      4.95107210	     -7.49999987	     -1.89155925	    -10.43673688	      2.54089311	     -0.01169424	      0.03361105	     -0.00559754	    -14.32512151	     81.60012429	     22.06729677	    107.47124658	     85.11981779	     -0.00238199	     -0.00980628	     -0.00607666	     40.24397615	     15.72775988	     -4.17242040	     16.98252941	     35.26352949
